<svg xmlns="http://www.w3.org/2000/svg" viewBox="0 0 256 256" role="img" aria-labelledby="title desc">
  <title id="title">Automatizacion-Codex</title>
  <desc id="desc">Un cuaderno técnico con una terminal y una marca de resumen.</desc>
  <defs>
    <linearGradient id="bg" x1="0" y1="0" x2="1" y2="1">
      <stop offset="0" stop-color="#fffaf2"/>
      <stop offset="1" stop-color="#f4dfd3"/>
    </linearGradient>
    <linearGradient id="panel" x1="0" y1="0" x2="1" y2="1">
      <stop offset="0" stop-color="#3a2d27"/>
      <stop offset="1" stop-color="#241f1a"/>
    </linearGradient>
  </defs>
  <rect width="256" height="256" rx="48" fill="url(#bg)"/>
  <path d="M58 48h106c18 0 32 14 32 32v128H90c-18 0-32-14-32-32V48Z" fill="#9a3412"/>
  <path d="M76 66h92c12 0 22 10 22 22v102H98c-12 0-22-10-22-22V66Z" fill="#fffaf2"/>
  <rect x="92" y="86" width="96" height="78" rx="18" fill="url(#panel)"/>
  <path d="M111 108l17 17-17 17" fill="none" stroke="#f9f2e8" stroke-linecap="round" stroke-linejoin="round" stroke-width="10"/>
  <path d="M140 144h24" fill="none" stroke="#f9f2e8" stroke-linecap="round" stroke-width="10"/>
  <circle cx="188" cy="188" r="34" fill="#c2410c"/>
  <path d="M173 188l10 10 20-22" fill="none" stroke="#fffaf2" stroke-linecap="round" stroke-linejoin="round" stroke-width="9"/>
</svg>
